<svg width="1062" height="248" viewBox="0 0 1062 248" fill="none" xmlns="http://www.w3.org/2000/svg">
<path d="M15.106 176V48.6H77.35C93.366 48.6 105.378 51.6333 113.386 57.7C121.515 63.7667 125.58 71.7747 125.58 81.724C125.58 88.3973 123.942 94.2213 120.666 99.196C117.39 104.049 112.901 107.811 107.198 110.48C101.495 113.149 94.9433 114.484 87.542 114.484L91 107.022C99.008 107.022 106.106 108.357 112.294 111.026C118.482 113.574 123.275 117.396 126.672 122.492C130.191 127.588 131.95 133.837 131.95 141.238C131.95 152.158 127.643 160.712 119.028 166.9C110.413 172.967 97.734 176 80.99 176H15.106ZM44.408 153.796H78.806C86.45 153.796 92.2133 152.583 96.096 150.156C100.1 147.608 102.102 143.604 102.102 138.144C102.102 132.805 100.1 128.862 96.096 126.314C92.2133 123.645 86.45 122.31 78.806 122.31H42.224V100.834H73.71C80.8687 100.834 86.3287 99.6207 90.09 97.194C93.9727 94.646 95.914 90.824 95.914 85.728C95.914 80.7533 93.9727 77.0527 90.09 74.626C86.3287 72.078 80.8687 70.804 73.71 70.804H44.408V153.796ZM212.33 176V156.89L210.51 152.704V118.488C210.51 112.421 208.629 107.689 204.868 104.292C201.228 100.895 195.586 99.196 187.942 99.196C182.725 99.196 177.568 100.045 172.472 101.744C167.497 103.321 163.251 105.505 159.732 108.296L149.54 88.458C154.879 84.6967 161.309 81.7847 168.832 79.722C176.355 77.6593 183.999 76.628 191.764 76.628C206.688 76.628 218.275 80.1467 226.526 87.184C234.777 94.2213 238.902 105.202 238.902 120.126V176H212.33ZM182.482 177.456C174.838 177.456 168.286 176.182 162.826 173.634C157.366 170.965 153.18 167.385 150.268 162.896C147.356 158.407 145.9 153.371 145.9 147.79C145.9 141.966 147.295 136.87 150.086 132.502C152.998 128.134 157.548 124.737 163.736 122.31C169.924 119.762 177.993 118.488 187.942 118.488H213.968V135.05H191.036C184.363 135.05 179.752 136.142 177.204 138.326C174.777 140.51 173.564 143.24 173.564 146.516C173.564 150.156 174.959 153.068 177.75 155.252C180.662 157.315 184.605 158.346 189.58 158.346C194.312 158.346 198.559 157.254 202.32 155.07C206.081 152.765 208.811 149.428 210.51 145.06L214.878 158.164C212.815 164.473 209.054 169.266 203.594 172.542C198.134 175.818 191.097 177.456 182.482 177.456ZM304.638 177.456C293.111 177.456 284.133 174.544 277.702 168.72C271.271 162.775 268.056 153.978 268.056 142.33V56.426H296.448V141.966C296.448 146.091 297.54 149.307 299.724 151.612C301.908 153.796 304.881 154.888 308.642 154.888C313.131 154.888 316.953 153.675 320.108 151.248L327.752 171.268C324.84 173.331 321.321 174.908 317.196 176C313.192 176.971 309.006 177.456 304.638 177.456ZM252.95 102.108V80.268H320.836V102.108H252.95ZM500.321 176V48.6H524.709L578.945 138.508H566.023L619.349 48.6H643.555L643.919 176H616.255L616.073 91.006H621.169L578.581 162.532H565.295L521.797 91.006H527.985V176H500.321ZM732.203 176V156.89L730.383 152.704V118.488C730.383 112.421 728.502 107.689 724.741 104.292C721.101 100.895 715.459 99.196 707.815 99.196C702.598 99.196 697.441 100.045 692.345 101.744C687.37 103.321 683.124 105.505 679.605 108.296L669.413 88.458C674.752 84.6967 681.182 81.7847 688.705 79.722C696.228 77.6593 703.872 76.628 711.637 76.628C726.561 76.628 738.148 80.1467 746.399 87.184C754.65 94.2213 758.775 105.202 758.775 120.126V176H732.203ZM702.355 177.456C694.711 177.456 688.159 176.182 682.699 173.634C677.239 170.965 673.053 167.385 670.141 162.896C667.229 158.407 665.773 153.371 665.773 147.79C665.773 141.966 667.168 136.87 669.959 132.502C672.871 128.134 677.421 124.737 683.609 122.31C689.797 119.762 697.866 118.488 707.815 118.488H733.841V135.05H710.909C704.236 135.05 699.625 136.142 697.077 138.326C694.65 140.51 693.437 143.24 693.437 146.516C693.437 150.156 694.832 153.068 697.623 155.252C700.535 157.315 704.478 158.346 709.453 158.346C714.185 158.346 718.432 157.254 722.193 155.07C725.954 152.765 728.684 149.428 730.383 145.06L734.751 158.164C732.688 164.473 728.927 169.266 723.467 172.542C718.007 175.818 710.97 177.456 702.355 177.456Z" fill="black"/>
<path d="M277.204 201.455V232H271.626L258.337 212.775H258.113V232H251.655V201.455H257.322L270.507 220.665H270.776V201.455H277.204ZM292.861 232.447C290.504 232.447 288.476 231.97 286.775 231.016C285.085 230.051 283.782 228.689 282.868 226.929C281.953 225.159 281.496 223.066 281.496 220.65C281.496 218.293 281.953 216.225 282.868 214.445C283.782 212.665 285.07 211.278 286.731 210.284C288.401 209.29 290.36 208.793 292.607 208.793C294.118 208.793 295.525 209.036 296.828 209.523C298.14 210.001 299.284 210.722 300.258 211.686C301.243 212.651 302.008 213.864 302.555 215.325C303.102 216.777 303.376 218.477 303.376 220.426V222.171H284.031V218.234H297.395C297.395 217.319 297.196 216.509 296.798 215.803C296.4 215.097 295.849 214.545 295.143 214.147C294.447 213.739 293.636 213.536 292.711 213.536C291.747 213.536 290.892 213.759 290.146 214.207C289.41 214.644 288.834 215.236 288.416 215.982C287.998 216.717 287.785 217.538 287.775 218.442V222.186C287.775 223.32 287.983 224.299 288.401 225.124C288.829 225.95 289.43 226.586 290.206 227.033C290.981 227.481 291.901 227.705 292.965 227.705C293.671 227.705 294.317 227.605 294.904 227.406C295.491 227.207 295.993 226.909 296.41 226.511C296.828 226.114 297.146 225.626 297.365 225.05L303.241 225.438C302.943 226.849 302.331 228.082 301.407 229.136C300.492 230.18 299.309 230.996 297.857 231.582C296.415 232.159 294.75 232.447 292.861 232.447ZM307.522 240.591V209.091H313.786V212.939H314.069C314.348 212.322 314.751 211.696 315.278 211.06C315.814 210.413 316.51 209.876 317.366 209.449C318.231 209.011 319.305 208.793 320.587 208.793C322.258 208.793 323.799 209.23 325.211 210.105C326.623 210.97 327.751 212.278 328.596 214.028C329.442 215.768 329.864 217.95 329.864 220.575C329.864 223.131 329.452 225.288 328.626 227.048C327.811 228.798 326.697 230.126 325.285 231.031C323.883 231.925 322.312 232.373 320.572 232.373C319.339 232.373 318.29 232.169 317.425 231.761C316.57 231.354 315.869 230.842 315.322 230.225C314.775 229.599 314.358 228.967 314.069 228.331H313.876V240.591H307.522ZM313.741 220.545C313.741 221.908 313.93 223.096 314.308 224.11C314.686 225.124 315.233 225.915 315.949 226.482C316.665 227.038 317.535 227.317 318.559 227.317C319.593 227.317 320.468 227.033 321.184 226.467C321.9 225.89 322.442 225.094 322.809 224.08C323.187 223.056 323.376 221.878 323.376 220.545C323.376 219.223 323.192 218.06 322.824 217.055C322.456 216.051 321.915 215.266 321.199 214.699C320.483 214.132 319.603 213.849 318.559 213.849C317.525 213.849 316.65 214.122 315.934 214.669C315.228 215.216 314.686 215.991 314.308 216.996C313.93 218 313.741 219.183 313.741 220.545ZM340.633 232.433C339.171 232.433 337.868 232.179 336.725 231.672C335.581 231.155 334.677 230.394 334.01 229.39C333.354 228.376 333.026 227.113 333.026 225.602C333.026 224.329 333.26 223.26 333.727 222.395C334.194 221.53 334.831 220.834 335.636 220.307C336.442 219.78 337.356 219.382 338.381 219.114C339.415 218.845 340.498 218.656 341.632 218.547C342.964 218.408 344.038 218.278 344.854 218.159C345.669 218.03 346.26 217.841 346.628 217.592C346.996 217.344 347.18 216.976 347.18 216.489V216.399C347.18 215.455 346.882 214.724 346.285 214.207C345.699 213.69 344.863 213.431 343.78 213.431C342.636 213.431 341.726 213.685 341.05 214.192C340.374 214.689 339.927 215.315 339.708 216.071L333.831 215.594C334.13 214.202 334.716 212.999 335.591 211.984C336.466 210.96 337.595 210.175 338.977 209.628C340.369 209.071 341.98 208.793 343.809 208.793C345.082 208.793 346.3 208.942 347.464 209.24C348.637 209.538 349.676 210.001 350.581 210.627C351.496 211.254 352.216 212.059 352.743 213.043C353.27 214.018 353.534 215.186 353.534 216.548V232H347.508V228.823H347.329C346.961 229.539 346.469 230.17 345.853 230.717C345.236 231.254 344.496 231.677 343.631 231.985C342.765 232.283 341.766 232.433 340.633 232.433ZM342.452 228.048C343.387 228.048 344.212 227.864 344.928 227.496C345.644 227.118 346.206 226.611 346.613 225.974C347.021 225.338 347.225 224.617 347.225 223.812V221.381C347.026 221.51 346.753 221.629 346.405 221.739C346.067 221.838 345.684 221.933 345.256 222.022C344.829 222.102 344.401 222.176 343.974 222.246C343.546 222.305 343.158 222.36 342.81 222.41C342.064 222.519 341.413 222.693 340.856 222.932C340.3 223.17 339.867 223.494 339.559 223.901C339.251 224.299 339.096 224.796 339.096 225.393C339.096 226.258 339.41 226.919 340.036 227.376C340.672 227.824 341.478 228.048 342.452 228.048ZM364.817 201.455V232H358.463V201.455H364.817ZM398.025 206.779V201.455H423.111V206.779H413.76V232H407.376V206.779H398.025ZM434.152 232.447C431.835 232.447 429.832 231.955 428.141 230.971C426.461 229.977 425.163 228.594 424.249 226.825C423.334 225.045 422.876 222.982 422.876 220.635C422.876 218.268 423.334 216.2 424.249 214.43C425.163 212.651 426.461 211.268 428.141 210.284C429.832 209.29 431.835 208.793 434.152 208.793C436.469 208.793 438.467 209.29 440.148 210.284C441.838 211.268 443.141 212.651 444.055 214.43C444.97 216.2 445.428 218.268 445.428 220.635C445.428 222.982 444.97 225.045 444.055 226.825C443.141 228.594 441.838 229.977 440.148 230.971C438.467 231.955 436.469 232.447 434.152 232.447ZM434.182 227.526C435.236 227.526 436.116 227.227 436.822 226.631C437.528 226.024 438.06 225.199 438.418 224.155C438.786 223.111 438.969 221.923 438.969 220.59C438.969 219.258 438.786 218.07 438.418 217.026C438.06 215.982 437.528 215.156 436.822 214.55C436.116 213.943 435.236 213.64 434.182 213.64C433.118 213.64 432.223 213.943 431.497 214.55C430.781 215.156 430.239 215.982 429.871 217.026C429.513 218.07 429.335 219.258 429.335 220.59C429.335 221.923 429.513 223.111 429.871 224.155C430.239 225.199 430.781 226.024 431.497 226.631C432.223 227.227 433.118 227.526 434.182 227.526ZM464.25 222.246V209.091H470.604V232H464.504V227.839H464.265C463.748 229.181 462.888 230.26 461.685 231.075C460.491 231.891 459.035 232.298 457.315 232.298C455.783 232.298 454.436 231.95 453.273 231.254C452.109 230.558 451.2 229.569 450.543 228.286C449.897 227.004 449.569 225.467 449.559 223.678V209.091H455.913V222.544C455.923 223.896 456.286 224.965 457.001 225.751C457.717 226.536 458.677 226.929 459.88 226.929C460.646 226.929 461.362 226.755 462.028 226.407C462.694 226.049 463.231 225.522 463.638 224.826C464.056 224.13 464.26 223.27 464.25 222.246ZM475.686 232V209.091H481.846V213.088H482.084C482.502 211.666 483.203 210.592 484.187 209.866C485.172 209.131 486.305 208.763 487.588 208.763C487.906 208.763 488.249 208.783 488.617 208.822C488.985 208.862 489.308 208.917 489.586 208.987V214.624C489.288 214.535 488.876 214.455 488.349 214.386C487.822 214.316 487.339 214.281 486.902 214.281C485.967 214.281 485.132 214.485 484.396 214.893C483.67 215.29 483.094 215.847 482.666 216.563C482.248 217.279 482.04 218.104 482.04 219.039V232H475.686ZM511.933 215.624L506.116 215.982C506.016 215.484 505.803 215.037 505.474 214.639C505.146 214.232 504.714 213.908 504.177 213.67C503.65 213.421 503.018 213.297 502.283 213.297C501.298 213.297 500.468 213.506 499.792 213.923C499.116 214.331 498.778 214.878 498.778 215.564C498.778 216.111 498.996 216.573 499.434 216.951C499.871 217.329 500.622 217.632 501.686 217.861L505.832 218.696C508.06 219.153 509.72 219.889 510.814 220.903C511.908 221.918 512.455 223.25 512.455 224.901C512.455 226.402 512.012 227.719 511.127 228.853C510.252 229.987 509.049 230.871 507.518 231.508C505.996 232.134 504.241 232.447 502.253 232.447C499.22 232.447 496.804 231.816 495.004 230.553C493.214 229.281 492.165 227.55 491.857 225.363L498.107 225.035C498.295 225.96 498.753 226.665 499.479 227.153C500.205 227.63 501.134 227.869 502.268 227.869C503.381 227.869 504.276 227.655 504.952 227.227C505.638 226.79 505.987 226.228 505.996 225.542C505.987 224.965 505.743 224.493 505.266 224.125C504.788 223.747 504.053 223.459 503.058 223.26L499.091 222.469C496.854 222.022 495.188 221.246 494.094 220.143C493.011 219.039 492.469 217.632 492.469 215.922C492.469 214.45 492.866 213.183 493.662 212.119C494.467 211.055 495.596 210.234 497.048 209.658C498.509 209.081 500.219 208.793 502.178 208.793C505.072 208.793 507.349 209.404 509.009 210.627C510.68 211.85 511.654 213.516 511.933 215.624ZM532.709 232.433C531.247 232.433 529.945 232.179 528.801 231.672C527.658 231.155 526.753 230.394 526.087 229.39C525.43 228.376 525.102 227.113 525.102 225.602C525.102 224.329 525.336 223.26 525.803 222.395C526.271 221.53 526.907 220.834 527.712 220.307C528.518 219.78 529.433 219.382 530.457 219.114C531.491 218.845 532.575 218.656 533.708 218.547C535.04 218.408 536.114 218.278 536.93 218.159C537.745 218.03 538.337 217.841 538.705 217.592C539.072 217.344 539.256 216.976 539.256 216.489V216.399C539.256 215.455 538.958 214.724 538.362 214.207C537.775 213.69 536.94 213.431 535.856 213.431C534.712 213.431 533.803 213.685 533.126 214.192C532.45 214.689 532.003 215.315 531.784 216.071L525.908 215.594C526.206 214.202 526.793 212.999 527.668 211.984C528.543 210.96 529.671 210.175 531.053 209.628C532.445 209.071 534.056 208.793 535.886 208.793C537.158 208.793 538.376 208.942 539.54 209.24C540.713 209.538 541.752 210.001 542.657 210.627C543.572 211.254 544.293 212.059 544.82 213.043C545.347 214.018 545.61 215.186 545.61 216.548V232H539.585V228.823H539.406C539.038 229.539 538.545 230.17 537.929 230.717C537.312 231.254 536.572 231.677 535.707 231.985C534.842 232.283 533.842 232.433 532.709 232.433ZM534.528 228.048C535.463 228.048 536.288 227.864 537.004 227.496C537.72 227.118 538.282 226.611 538.69 225.974C539.097 225.338 539.301 224.617 539.301 223.812V221.381C539.102 221.51 538.829 221.629 538.481 221.739C538.143 221.838 537.76 221.933 537.332 222.022C536.905 222.102 536.477 222.176 536.05 222.246C535.622 222.305 535.234 222.36 534.886 222.41C534.141 222.519 533.489 222.693 532.933 222.932C532.376 223.17 531.943 223.494 531.635 223.901C531.327 224.299 531.173 224.796 531.173 225.393C531.173 226.258 531.486 226.919 532.112 227.376C532.749 227.824 533.554 228.048 534.528 228.048ZM556.893 218.756V232H550.539V209.091H556.595V213.133H556.863C557.37 211.8 558.221 210.746 559.414 209.971C560.607 209.185 562.054 208.793 563.754 208.793C565.345 208.793 566.732 209.141 567.915 209.837C569.098 210.533 570.018 211.527 570.674 212.82C571.331 214.102 571.659 215.634 571.659 217.413V232H565.305V218.547C565.315 217.145 564.957 216.051 564.231 215.266C563.505 214.47 562.506 214.072 561.233 214.072C560.378 214.072 559.623 214.256 558.966 214.624C558.32 214.992 557.813 215.529 557.445 216.235C557.087 216.931 556.903 217.771 556.893 218.756ZM585.108 232.373C583.368 232.373 581.792 231.925 580.38 231.031C578.978 230.126 577.865 228.798 577.039 227.048C576.224 225.288 575.816 223.131 575.816 220.575C575.816 217.95 576.239 215.768 577.084 214.028C577.929 212.278 579.053 210.97 580.455 210.105C581.867 209.23 583.413 208.793 585.093 208.793C586.376 208.793 587.445 209.011 588.3 209.449C589.165 209.876 589.861 210.413 590.388 211.06C590.925 211.696 591.333 212.322 591.611 212.939H591.805V201.455H598.144V232H591.879V228.331H591.611C591.313 228.967 590.89 229.599 590.343 230.225C589.806 230.842 589.105 231.354 588.24 231.761C587.385 232.169 586.341 232.373 585.108 232.373ZM587.122 227.317C588.146 227.317 589.011 227.038 589.717 226.482C590.433 225.915 590.98 225.124 591.357 224.11C591.745 223.096 591.939 221.908 591.939 220.545C591.939 219.183 591.75 218 591.372 216.996C590.994 215.991 590.448 215.216 589.732 214.669C589.016 214.122 588.146 213.849 587.122 213.849C586.078 213.849 585.198 214.132 584.482 214.699C583.766 215.266 583.224 216.051 582.856 217.055C582.488 218.06 582.304 219.223 582.304 220.545C582.304 221.878 582.488 223.056 582.856 224.08C583.234 225.094 583.776 225.89 584.482 226.467C585.198 227.033 586.078 227.317 587.122 227.317ZM613.208 232V201.455H625.259C627.566 201.455 629.534 201.867 631.165 202.692C632.806 203.508 634.053 204.666 634.909 206.168C635.774 207.659 636.206 209.414 636.206 211.433C636.206 213.461 635.769 215.206 634.894 216.668C634.019 218.119 632.751 219.233 631.09 220.009C629.44 220.784 627.441 221.172 625.095 221.172H617.026V215.982H624.051C625.284 215.982 626.308 215.812 627.123 215.474C627.938 215.136 628.545 214.629 628.943 213.953C629.35 213.277 629.554 212.437 629.554 211.433C629.554 210.418 629.35 209.563 628.943 208.867C628.545 208.171 627.933 207.644 627.108 207.286C626.293 206.918 625.264 206.734 624.021 206.734H619.666V232H613.208ZM629.703 218.099L637.295 232H630.166L622.738 218.099H629.703ZM650.722 232.447C648.365 232.447 646.337 231.97 644.637 231.016C642.946 230.051 641.644 228.689 640.729 226.929C639.814 225.159 639.357 223.066 639.357 220.65C639.357 218.293 639.814 216.225 640.729 214.445C641.644 212.665 642.931 211.278 644.592 210.284C646.262 209.29 648.221 208.793 650.468 208.793C651.98 208.793 653.387 209.036 654.689 209.523C656.002 210.001 657.145 210.722 658.12 211.686C659.104 212.651 659.87 213.864 660.417 215.325C660.963 216.777 661.237 218.477 661.237 220.426V222.171H641.892V218.234H655.256C655.256 217.319 655.057 216.509 654.659 215.803C654.262 215.097 653.71 214.545 653.004 214.147C652.308 213.739 651.498 213.536 650.573 213.536C649.608 213.536 648.753 213.759 648.007 214.207C647.272 214.644 646.695 215.236 646.277 215.982C645.86 216.717 645.646 217.538 645.636 218.442V222.186C645.636 223.32 645.845 224.299 646.262 225.124C646.69 225.95 647.292 226.586 648.067 227.033C648.843 227.481 649.762 227.705 650.826 227.705C651.532 227.705 652.179 227.605 652.765 227.406C653.352 227.207 653.854 226.909 654.272 226.511C654.689 226.114 655.007 225.626 655.226 225.05L661.103 225.438C660.804 226.849 660.193 228.082 659.268 229.136C658.353 230.18 657.17 230.996 655.718 231.582C654.277 232.159 652.611 232.447 650.722 232.447ZM671.737 218.756V232H665.383V209.091H671.439V213.133H671.707C672.214 211.8 673.064 210.746 674.257 209.971C675.451 209.185 676.897 208.793 678.598 208.793C680.189 208.793 681.576 209.141 682.759 209.837C683.942 210.533 684.862 211.527 685.518 212.82C686.174 214.102 686.502 215.634 686.502 217.413V232H680.149V218.547C680.159 217.145 679.801 216.051 679.075 215.266C678.349 214.47 677.35 214.072 676.077 214.072C675.222 214.072 674.466 214.256 673.81 214.624C673.164 214.992 672.657 215.529 672.289 216.235C671.931 216.931 671.747 217.771 671.737 218.756ZM703.695 209.091V213.864H689.899V209.091H703.695ZM693.031 203.602H699.385V224.96C699.385 225.547 699.475 226.004 699.654 226.332C699.833 226.651 700.081 226.874 700.399 227.004C700.727 227.133 701.105 227.197 701.533 227.197C701.831 227.197 702.129 227.173 702.428 227.123C702.726 227.063 702.955 227.018 703.114 226.989L704.113 231.717C703.795 231.816 703.347 231.93 702.771 232.06C702.194 232.199 701.493 232.283 700.668 232.313C699.137 232.373 697.794 232.169 696.641 231.702C695.497 231.234 694.607 230.509 693.971 229.524C693.335 228.54 693.021 227.297 693.031 225.795V203.602ZM714.367 232.433C712.905 232.433 711.603 232.179 710.459 231.672C709.316 231.155 708.411 230.394 707.745 229.39C707.089 228.376 706.76 227.113 706.76 225.602C706.76 224.329 706.994 223.26 707.461 222.395C707.929 221.53 708.565 220.834 709.371 220.307C710.176 219.78 711.091 219.382 712.115 219.114C713.149 218.845 714.233 218.656 715.366 218.547C716.699 218.408 717.773 218.278 718.588 218.159C719.403 218.03 719.995 217.841 720.363 217.592C720.731 217.344 720.915 216.976 720.915 216.489V216.399C720.915 215.455 720.616 214.724 720.02 214.207C719.433 213.69 718.598 213.431 717.514 213.431C716.371 213.431 715.461 213.685 714.785 214.192C714.108 214.689 713.661 215.315 713.442 216.071L707.566 215.594C707.864 214.202 708.451 212.999 709.326 211.984C710.201 210.96 711.329 210.175 712.711 209.628C714.104 209.071 715.714 208.793 717.544 208.793C718.817 208.793 720.035 208.942 721.198 209.24C722.371 209.538 723.41 210.001 724.315 210.627C725.23 211.254 725.951 212.059 726.478 213.043C727.005 214.018 727.268 215.186 727.268 216.548V232H721.243V228.823H721.064C720.696 229.539 720.204 230.17 719.587 230.717C718.971 231.254 718.23 231.677 717.365 231.985C716.5 232.283 715.501 232.433 714.367 232.433ZM716.187 228.048C717.121 228.048 717.947 227.864 718.662 227.496C719.378 227.118 719.94 226.611 720.348 225.974C720.756 225.338 720.959 224.617 720.959 223.812V221.381C720.76 221.51 720.487 221.629 720.139 221.739C719.801 221.838 719.418 221.933 718.991 222.022C718.563 222.102 718.135 222.176 717.708 222.246C717.28 222.305 716.893 222.36 716.545 222.41C715.799 222.519 715.148 222.693 714.591 222.932C714.034 223.17 713.601 223.494 713.293 223.901C712.985 224.299 712.831 224.796 712.831 225.393C712.831 226.258 713.144 226.919 713.77 227.376C714.407 227.824 715.212 228.048 716.187 228.048ZM738.551 201.455V232H732.198V201.455H738.551ZM762.702 215.624L756.885 215.982C756.786 215.484 756.572 215.037 756.244 214.639C755.916 214.232 755.483 213.908 754.946 213.67C754.419 213.421 753.788 213.297 753.052 213.297C752.068 213.297 751.238 213.506 750.561 213.923C749.885 214.331 749.547 214.878 749.547 215.564C749.547 216.111 749.766 216.573 750.203 216.951C750.641 217.329 751.392 217.632 752.456 217.861L756.602 218.696C758.829 219.153 760.49 219.889 761.583 220.903C762.677 221.918 763.224 223.25 763.224 224.901C763.224 226.402 762.782 227.719 761.897 228.853C761.022 229.987 759.819 230.871 758.287 231.508C756.766 232.134 755.011 232.447 753.022 232.447C749.99 232.447 747.574 231.816 745.774 230.553C743.984 229.281 742.935 227.55 742.627 225.363L748.876 225.035C749.065 225.96 749.522 226.665 750.248 227.153C750.974 227.63 751.904 227.869 753.037 227.869C754.151 227.869 755.046 227.655 755.722 227.227C756.408 226.79 756.756 226.228 756.766 225.542C756.756 224.965 756.512 224.493 756.035 224.125C755.558 223.747 754.822 223.459 753.828 223.26L749.86 222.469C747.623 222.022 745.958 221.246 744.864 220.143C743.78 219.039 743.238 217.632 743.238 215.922C743.238 214.45 743.636 213.183 744.431 212.119C745.237 211.055 746.365 210.234 747.817 209.658C749.279 209.081 750.989 208.793 752.948 208.793C755.841 208.793 758.118 209.404 759.779 210.627C761.449 211.85 762.424 213.516 762.702 215.624Z" fill="black"/>
<path d="M787 173C1047 173 1047 198 917 198C787 198 787 233 1047 233" stroke="#FFC800" stroke-width="6" stroke-linecap="round" stroke-linejoin="round"/>
<path d="M1037 218L1062 233L1037 248V218Z" fill="#FFC800"/>
<line x1="383.5" y1="201" x2="383.5" y2="234" stroke="black" stroke-width="3"/>
<circle cx="399.5" cy="123.5" r="60.5" fill="#FFC800"/>
<path d="M435.863 138.309V165.222C449.928 165.222 459.93 131.424 459.93 125.165C459.93 118.906 462.117 102.007 442.114 81.3531C426.111 64.8297 400.439 64.8714 389.604 66.9577C357.348 70.9633 364.255 103.866 374.289 117.967C374.289 117.967 384.889 128.26 393.323 133.909C402.355 141.713 418.734 159.382 400.231 163.638C377.102 168.958 365.193 138.897 363.662 132.031C362.463 126.656 360.536 117.654 360.536 114.212C359.879 101.676 358.059 96.4741 356.473 85.1084C350.013 88.2378 337.282 100.63 338.032 125.165C338.782 149.7 355.431 166.682 363.662 172.107C375.851 179.096 402.7 187.735 418.047 176.801C437.696 162.802 429.611 148.949 426.173 138.309C423.423 129.797 407.732 118.698 400.231 114.212C382.478 99.9419 385.749 92.2017 389.604 90.1154C433.112 78.5991 438.571 117.446 435.863 138.309Z" fill="black" stroke="black"/>
</svg>
